<svg id="Layer_1" data-name="Layer 1" xmlns="http://www.w3.org/2000/svg" viewBox="0 0 40 40"><defs><style>.cls-1{fill:#ebb245;}</style></defs><path class="cls-1" d="M36.21,14.39l-2.83-3.31a2.39,2.39,0,0,0,1.43-.67l.48-.48a.65.65,0,0,0,0-.91.63.63,0,0,0-.9,0l-.48.48a1.09,1.09,0,0,1-.78.33h-5a1.09,1.09,0,0,1-.78-.33l-.41-.41a.65.65,0,0,0-.91,0A.67.67,0,0,0,26,10l.41.41a2.39,2.39,0,0,0,1.55.68l0,.05a2.52,2.52,0,0,1-1.19.81l-2.58.83a2.54,2.54,0,0,1-.78.12H9.22a.58.58,0,0,0-.19,0H5.74a2.27,2.27,0,0,0-2.26,2.26v4.7a.64.64,0,0,0,.64.64.64.64,0,0,0,.64-.64v-4.7a1,1,0,0,1,1-1h.11a2.7,2.7,0,0,0-.42,1.44V30.29a.86.86,0,0,0,.86.87h.56a.87.87,0,0,0,.87-.87V27l.57-.3v3.57a.87.87,0,0,0,.87.87h.56a.86.86,0,0,0,.86-.87v-4.8l1.87-1h8.7v5.8a.87.87,0,0,0,.87.87h.56a.87.87,0,0,0,.87-.87v-5.8H24v5.8a.87.87,0,0,0,.87.87h.56a.87.87,0,0,0,.87-.87V24.23a3.52,3.52,0,0,0,1.92-1.78l2.16-4.55a1.49,1.49,0,0,1,.84-.76l1.41-.52a1.43,1.43,0,0,1,.5-.09l2.11,0a1.3,1.3,0,0,0,1.13-.7,1.28,1.28,0,0,0-.17-1.42"/></svg>