<svg id="Layer_1" data-name="Layer 1" xmlns="http://www.w3.org/2000/svg" viewBox="0 0 30 30"><defs><style>.cls-1{fill:#2569b3;}</style></defs><path class="cls-1" d="M13.91,9.11a.49.49,0,0,1,.51-.17l5.88,1.49a.18.18,0,0,1,.1.29l-1,1.2a.38.38,0,0,1-.4.13l-6.31-1.57Zm10.45,2.38a.56.56,0,0,0-.56.56V14a.31.31,0,0,1-.08.23L17,22.52a.79.79,0,0,1-.84.26L7.66,20.34c-.11,0-1.14-.39-1.14-2a1.76,1.76,0,0,1,.75-1.66.57.57,0,0,1,.43,0L16.15,19a1.52,1.52,0,0,0,1.59-.51L24.6,10a1,1,0,0,0,.16-.89,1,1,0,0,0-.65-.62l-8.8-2.35a1.58,1.58,0,0,0-1.66.54l-7.21,9v0l-.54.8h0a3.21,3.21,0,0,0-.51,1.85,2.94,2.94,0,0,0,2,3.09l8.53,2.45a1.93,1.93,0,0,0,.53.07,1.91,1.91,0,0,0,1.49-.71l6.67-8.3a1.49,1.49,0,0,0,.33-.93V12.05a.56.56,0,0,0-.55-.56"/></svg>