<svg id="Layer_1" data-name="Layer 1" xmlns="http://www.w3.org/2000/svg" viewBox="0 0 30 30"><defs><style>.cls-1{fill:#f57f26;}</style></defs><path class="cls-1" d="M14.42,14h1.16v1.56H14.42Zm0,2.42h1.16V18H14.42Zm0,2.42h1.16v1.56H14.42Zm-1.63-5.81L8.86,21.36a.31.31,0,0,0,.29.44h11.7a.31.31,0,0,0,.28-.44l-3.92-8.31a.31.31,0,0,0-.28-.18H13.07a.31.31,0,0,0-.28.18m10.4,1.76V8.54a.34.34,0,0,0-.34-.34H7.15a.34.34,0,0,0-.34.34v6.27a.34.34,0,0,0,.34.34H9.94a.34.34,0,0,0,.34-.32,4.72,4.72,0,0,1,9.42,0,.33.33,0,0,0,.33.32h2.82a.34.34,0,0,0,.34-.34"/></svg>