<svg id="Layer_1" data-name="Layer 1" xmlns="http://www.w3.org/2000/svg" viewBox="0 0 30 30"><defs><style>.cls-1{fill:#b55e18;}</style></defs><path class="cls-1" d="M17.41,7.83v-2H12.59v2a.56.56,0,0,0,.56.56h3.7a.56.56,0,0,0,.56-.56m-4.23,5.09a.37.37,0,0,0,0-.53.39.39,0,0,0-.53,0l-.73.73-.41-.4a.37.37,0,0,0-.53,0,.39.39,0,0,0,0,.53l.68.67a.36.36,0,0,0,.26.11.4.4,0,0,0,.27-.11Zm0,3a.37.37,0,0,0-.53-.53l-.73.73-.41-.41a.37.37,0,0,0-.53.53l.68.68a.35.35,0,0,0,.26.1.39.39,0,0,0,.27-.1Zm0,3a.38.38,0,0,0,0-.54.39.39,0,0,0-.53,0l-.73.74-.41-.41a.37.37,0,0,0-.53,0,.39.39,0,0,0,0,.53l.68.67a.36.36,0,0,0,.26.11.4.4,0,0,0,.27-.11ZM19,13.29v0a.51.51,0,0,0-.51-.51H14.55a.5.5,0,0,0-.51.51v0a.51.51,0,0,0,.51.51h3.94a.51.51,0,0,0,.51-.51m0,3v-.05a.51.51,0,0,0-.51-.51H14.55a.51.51,0,0,0-.51.51v.05a.51.51,0,0,0,.51.52h3.94a.51.51,0,0,0,.51-.52m0,3v-.05a.51.51,0,0,0-.51-.51H14.55a.51.51,0,0,0-.51.51v.05a.51.51,0,0,0,.51.51h3.94A.51.51,0,0,0,19,19.3m1.09,2.22a.49.49,0,0,1-.48.48H10.39a.49.49,0,0,1-.48-.48V11.07a.48.48,0,0,1,.48-.48h9.22a.48.48,0,0,1,.48.48Zm1.84,1.35V8.21a1.29,1.29,0,0,0-1.29-1.29H18.41v.91a1.56,1.56,0,0,1-1.56,1.56h-3.7a1.56,1.56,0,0,1-1.56-1.56V6.92H9.36A1.29,1.29,0,0,0,8.07,8.21V22.87a1.29,1.29,0,0,0,1.29,1.29H20.64a1.29,1.29,0,0,0,1.29-1.29"/></svg>