<svg id="Layer_1" data-name="Layer 1" xmlns="http://www.w3.org/2000/svg" viewBox="0 0 30 30"><defs><style>.cls-1{fill:#885ba6;}</style></defs><path class="cls-1" d="M19.17,17.09l2.38-4.79,2.38,4.79Zm-13.1,0L8.45,12.3l2.38,4.79Zm19,0-2.83-5.71A6.26,6.26,0,0,0,24,10.79a.7.7,0,0,0-.71-1.21,3.51,3.51,0,0,1-2.48.44,6.61,6.61,0,0,1-1-.48,7.89,7.89,0,0,0-4.05-1.22,1.31,1.31,0,0,0,.6-1.08,1.35,1.35,0,0,0-2.7,0,1.31,1.31,0,0,0,.6,1.08A7.89,7.89,0,0,0,10.2,9.54a6.61,6.61,0,0,1-1,.48,3.51,3.51,0,0,1-2.48-.44.7.7,0,0,0-.71,1.21,6.26,6.26,0,0,0,1.72.63L4.94,17.13a.4.4,0,0,0-.2.5,4,4,0,0,0,7.43,0,.4.4,0,0,0-.2-.5L9.16,11.47a3.39,3.39,0,0,0,.55-.13,7,7,0,0,0,1.19-.59,6.32,6.32,0,0,1,2.75-1V22.4H11a.86.86,0,0,0,0,1.71H19a.86.86,0,0,0,0-1.71H16.35V9.78a6.32,6.32,0,0,1,2.75,1,7,7,0,0,0,1.19.59,2.59,2.59,0,0,0,.55.13L18,17.13a.4.4,0,0,0-.2.5,4,4,0,0,0,7.43,0,.4.4,0,0,0-.2-.5"/></svg>