<svg id="Layer_1" data-name="Layer 1" xmlns="http://www.w3.org/2000/svg" viewBox="0 0 40 40"><defs><style>.cls-1{fill:#58a04e;}</style></defs><path class="cls-1" d="M23.9,13.31A5.46,5.46,0,0,0,19,9.73,5.45,5.45,0,1,0,8.69,13.25,5.45,5.45,0,1,0,12,23.63a4.22,4.22,0,0,0,1.62,1.68v7.22l-.87.8a.4.4,0,0,0,.45.66l1.4-.66h0a4.64,4.64,0,0,0,1,.12,4.55,4.55,0,0,0,1-.12l1.4.66a.41.41,0,0,0,.46-.08.4.4,0,0,0,0-.58l-.86-.8V25.4a4.2,4.2,0,0,0,1.95-2.1,5.45,5.45,0,0,0,8-4.84,5.44,5.44,0,0,0-3.69-5.15"/><path class="cls-1" d="M25.24,29.62c0-.29-.6-.53-1.34-.53s-1.34.24-1.34.53.6.53,1.34.53,1.34-.24,1.34-.53"/><path class="cls-1" d="M25.93,32.53V29.77c0,.45-.91.8-2,.8s-2-.35-2-.8v2.76l-.86.8a.4.4,0,0,0,0,.58.41.41,0,0,0,.46.08l1.4-.66h0a4.18,4.18,0,0,0,1,.12,4.13,4.13,0,0,0,1-.12l1.4.66a.41.41,0,0,0,.46-.08.4.4,0,0,0,0-.58Z"/><path class="cls-1" d="M32.16,30.15c.74,0,1.34-.24,1.34-.53s-.6-.53-1.34-.53-1.34.24-1.34.53.6.53,1.34.53"/><path class="cls-1" d="M34.18,32.53V29.77c0,.45-.9.8-2,.8s-2-.35-2-.8v2.76l-.87.8a.4.4,0,0,0,.45.66l1.4-.66h0a4.13,4.13,0,0,0,1,.12,4,4,0,0,0,1-.12l1.4.66a.41.41,0,0,0,.46-.08.4.4,0,0,0,0-.58Z"/></svg>