<svg id="Layer_1" data-name="Layer 1" xmlns="http://www.w3.org/2000/svg" viewBox="0 0 40 40"><defs><style>.cls-1{fill:#eb7423;}</style></defs><path class="cls-1" d="M3.43,15V12.05A1.07,1.07,0,0,1,4.5,11h6.8a1.07,1.07,0,0,1,1.07,1.07V15a1.07,1.07,0,0,1-1.07,1.07H4.5A1.07,1.07,0,0,1,3.43,15m18.33,9.26-4.7-7.5a.59.59,0,0,1-.09-.31V11H15.16v5.46a2.37,2.37,0,0,0,.36,1.27l4.7,7.5a2.33,2.33,0,0,1-2,3.57h-3.7v-18A2.26,2.26,0,0,0,12.29,8.5H3.51a2.26,2.26,0,0,0-2.26,2.26V29.25a2.26,2.26,0,0,0,2.26,2.26h8.78a2.25,2.25,0,0,0,1.8-.92h4.16a4.14,4.14,0,0,0,3.51-6.34"/><path class="cls-1" d="M37.62,19.08H35.56l1.07-9.33a1.12,1.12,0,0,0-1.93-.9L24.89,19.1A1.13,1.13,0,0,0,25.7,21h2l-1.85,9.14a1.13,1.13,0,0,0,1.88,1L38.4,21a1.13,1.13,0,0,0-.78-1.94"/></svg>